<?xml version="1.0" encoding="UTF-8" standalone="no"?>
<!-- Created with Inkscape (http://www.inkscape.org/) -->

<svg
   xmlns:dc="http://purl.org/dc/elements/1.1/"
   xmlns:cc="http://creativecommons.org/ns#"
   xmlns:rdf="http://www.w3.org/1999/02/22-rdf-syntax-ns#"
   xmlns:svg="http://www.w3.org/2000/svg"
   xmlns="http://www.w3.org/2000/svg"
   xmlns:sodipodi="http://sodipodi.sourceforge.net/DTD/sodipodi-0.dtd"
   xmlns:inkscape="http://www.inkscape.org/namespaces/inkscape"
   width="114.29496mm"
   height="18.02887mm"
   viewBox="0 0 114.29496 18.02887"
   version="1.1"
   id="svg8"
   inkscape:version="0.92.1 r15371"
   sodipodi:docname="logo.svg">
  <defs
     id="defs2">
    <marker
       inkscape:stockid="Arrow1Lstart"
       orient="auto"
       refY="0"
       refX="0"
       id="Arrow1Lstart"
       style="overflow:visible"
       inkscape:isstock="true">
      <path
         id="path4526"
         d="M 0,0 5,-5 -12.5,0 5,5 Z"
         style="fill:#000000;fill-opacity:1;fill-rule:evenodd;stroke:#000000;stroke-width:1.00000003pt;stroke-opacity:1"
         transform="matrix(0.8,0,0,0.8,10,0)"
         inkscape:connector-curvature="0" />
    </marker>
  </defs>
  <sodipodi:namedview
     id="base"
     pagecolor="#ffffff"
     bordercolor="#666666"
     borderopacity="1.0"
     inkscape:pageopacity="0.0"
     inkscape:pageshadow="2"
     inkscape:zoom="0.98994949"
     inkscape:cx="19.967096"
     inkscape:cy="1.8098472"
     inkscape:document-units="mm"
     inkscape:current-layer="flowRoot4485"
     showgrid="false"
     fit-margin-top="1"
     fit-margin-left="1"
     fit-margin-right="1"
     fit-margin-bottom="1"
     inkscape:window-width="1366"
     inkscape:window-height="745"
     inkscape:window-x="-8"
     inkscape:window-y="-8"
     inkscape:window-maximized="1" />
  <metadata
     id="metadata5">
    <rdf:RDF>
      <cc:Work
         rdf:about="">
        <dc:format>image/svg+xml</dc:format>
        <dc:type
           rdf:resource="http://purl.org/dc/dcmitype/StillImage" />
        <dc:title />
      </cc:Work>
    </rdf:RDF>
  </metadata>
  <g
     inkscape:label="Layer 1"
     inkscape:groupmode="layer"
     id="layer1"
     transform="translate(-2.3795504,-2.5906493)">
    <g
       id="g4886"
       transform="translate(-27.970238,-58.343122)"
       inkscape:export-xdpi="96"
       inkscape:export-ydpi="96">
      <g
         aria-label="ЛАБОРАТОРИЯ"
         transform="matrix(0.26458333,0,0,0.26458333,-0.66519859,-0.24486154)"
         style="font-style:normal;font-weight:normal;font-size:40px;line-height:1.25;font-family:sans-serif;letter-spacing:0px;word-spacing:0px;fill:#000000;fill-opacity:1;stroke:none"
         id="flowRoot4485">
        <path
           d="m 204.12891,259.12695 q 1.79687,-5.21484 1.79687,-15.23437 v -8.35938 h 17.96875 v 29.16016 h -2.59766 V 237.7793 h -12.77343 v 6.1914 q 0,9.6875 -1.67969,15.44922 -1.81641,5.83985 -6.52344,5.83985 -1.1914,0 -1.91406,-0.13672 L 198.25,262.89648 q 0.95703,0.15625 1.83594,0.15625 1.48437,0 2.42187,-0.9375 0.91797,-0.9375 1.6211,-2.98828 z"
           style="font-style:normal;font-variant:normal;font-weight:normal;font-stretch:normal;font-family:'Yu Gothic';-inkscape-font-specification:'Yu Gothic';letter-spacing:-7.80999994px"
           id="path4506" />
        <path
           d="m 248.15484,235.5332 9.62891,29.16016 h -2.79297 l -3.08594,-9.62891 h -10.99609 l -3.16406,9.62891 h -2.63672 l 9.64843,-29.16016 z m 3.14453,17.40235 -2.42187,-7.59766 q -1.3086,-3.96484 -2.32422,-7.73437 h -0.37109 q -1.05469,3.90625 -2.26563,7.69531 l -2.40234,7.63672 z"
           style="font-style:normal;font-variant:normal;font-weight:normal;font-stretch:normal;font-family:'Yu Gothic';-inkscape-font-specification:'Yu Gothic';letter-spacing:-7.80999994px"
           id="path4508" />
        <path
           d="m 269.34875,235.5332 h 18.04687 v 2.2461 H 271.9464 v 10.3125 h 7.16797 q 5.11719,0 7.71485,2.51953 2.24609,2.14844 2.24609,5.83984 0,4.0625 -2.79297,6.25 -2.53906,1.99219 -6.93359,1.99219 h -10 z m 2.59765,26.95313 h 7.2461 q 3.75,0 5.60547,-1.89453 1.52343,-1.5625 1.52343,-4.14063 0,-3.16406 -2.1289,-4.74609 -1.875,-1.40625 -5.25391,-1.40625 h -6.99219 z"
           style="font-style:normal;font-variant:normal;font-weight:normal;font-stretch:normal;font-family:'Yu Gothic';-inkscape-font-specification:'Yu Gothic';letter-spacing:-7.80999994px"
           id="path4510" />
        <path
           d="m 310.85516,235.00586 q 5.58593,0 8.86718,4.47266 2.96875,4.0625 2.96875,10.60546 0,7.5 -3.80859,11.67969 -3.20313,3.4961 -8.02734,3.4961 -5.58594,0 -8.86719,-4.49219 -2.96875,-4.0625 -2.96875,-10.58594 0,-7.5 3.84765,-11.69922 3.20313,-3.47656 7.98829,-3.47656 z m 0,2.28516 q -4.35547,0 -6.81641,3.75 -2.22656,3.39843 -2.22656,9.08203 0,6.48437 2.87109,9.96093 2.40234,2.89063 6.17188,2.89063 4.375,0 6.83593,-3.76953 2.20703,-3.39844 2.20703,-9.08203 0,-6.50391 -2.85156,-9.94141 -2.38281,-2.89062 -6.1914,-2.89062 z"
           style="font-style:normal;font-variant:normal;font-weight:normal;font-stretch:normal;font-family:'Yu Gothic';-inkscape-font-specification:'Yu Gothic';letter-spacing:-7.80999994px"
           id="path4512" />
        <path
           d="m 334.00218,235.5332 h 9.39453 q 5.25391,0 7.77344,2.36328 2.14844,2.01172 2.14844,5.60547 0,4.0625 -2.94922,6.23047 -2.65625,1.9336 -7.20703,1.9336 h -6.52344 v 13.02734 h -2.63672 z m 2.63672,2.20703 v 11.75782 h 6.36719 q 7.55859,0 7.55859,-5.95703 0,-5.80079 -7.32422,-5.80079 z"
           style="font-style:normal;font-variant:normal;font-weight:normal;font-stretch:normal;font-family:'Yu Gothic';-inkscape-font-specification:'Yu Gothic';letter-spacing:-7.80999994px"
           id="path4514" />
        <path
           d="m 376.91484,235.5332 9.62891,29.16016 h -2.79297 l -3.08594,-9.62891 h -10.99609 l -3.16407,9.62891 h -2.63671 l 9.64843,-29.16016 z m 3.14453,17.40235 -2.42187,-7.59766 q -1.3086,-3.96484 -2.32422,-7.73437 h -0.3711 q -1.05468,3.90625 -2.26562,7.69531 l -2.40234,7.63672 z"
           style="font-style:normal;font-variant:normal;font-weight:normal;font-stretch:normal;font-family:'Yu Gothic';-inkscape-font-specification:'Yu Gothic';letter-spacing:-7.80999994px"
           id="path4516" />
        <path
           d="m 418.08922,235.5332 v 2.28516 h -9.39453 v 26.875 h -2.63672 v -26.875 h -9.35547 v -2.28516 z"
           style="font-style:normal;font-variant:normal;font-weight:normal;font-stretch:normal;font-family:'Yu Gothic';-inkscape-font-specification:'Yu Gothic';letter-spacing:-7.80999994px"
           id="path4518" />
        <path
           d="m 439.61516,235.00586 q 5.58594,0 8.86719,4.47266 2.96875,4.0625 2.96875,10.60546 0,7.5 -3.8086,11.67969 -3.20312,3.4961 -8.02734,3.4961 -5.58594,0 -8.86719,-4.49219 -2.96875,-4.0625 -2.96875,-10.58594 0,-7.5 3.84766,-11.69922 3.20312,-3.47656 7.98828,-3.47656 z m 0,2.28516 q -4.35547,0 -6.81641,3.75 -2.22656,3.39843 -2.22656,9.08203 0,6.48437 2.87109,9.96093 2.40235,2.89063 6.17188,2.89063 4.375,0 6.83594,-3.76953 2.20703,-3.39844 2.20703,-9.08203 0,-6.50391 -2.85157,-9.94141 -2.38281,-2.89062 -6.1914,-2.89062 z"
           style="font-style:normal;font-variant:normal;font-weight:normal;font-stretch:normal;font-family:'Yu Gothic';-inkscape-font-specification:'Yu Gothic';letter-spacing:-7.80999994px"
           id="path4520" />
        <path
           d="m 462.76218,235.5332 h 9.39453 q 5.2539,0 7.77344,2.36328 2.14843,2.01172 2.14843,5.60547 0,4.0625 -2.94922,6.23047 -2.65625,1.9336 -7.20703,1.9336 h -6.52343 v 13.02734 h -2.63672 z m 2.63672,2.20703 v 11.75782 h 6.36718 q 7.5586,0 7.5586,-5.95703 0,-5.80079 -7.32422,-5.80079 z"
           style="font-style:normal;font-variant:normal;font-weight:normal;font-stretch:normal;font-family:'Yu Gothic';-inkscape-font-specification:'Yu Gothic';letter-spacing:-7.80999994px"
           id="path4522" />
        <path
           d="m 493.54593,235.5332 h 2.48047 v 17.10938 q 0,3.90625 -0.27344,9.08203 h 0.39063 q 2.32421,-4.80469 4.16015,-8.18359 L 510.3428,235.5332 h 4.08204 v 29.16016 h -2.48047 v -18.125 q 0,-2.51953 0.0781,-8.75 h -0.39062 q -2.5,4.92187 -4.16016,7.98828 l -10.52734,18.88672 h -3.39844 z"
           style="font-style:normal;font-variant:normal;font-weight:normal;font-stretch:normal;font-family:'Yu Gothic';-inkscape-font-specification:'Yu Gothic';letter-spacing:-7.80999994px"
           id="path4524" />
        <path
           d="m 545.42343,235.5332 v 29.16016 h -2.59765 v -13.90625 h -6.36719 q -1.07422,0 -1.54297,-0.0391 l -6.67969,13.94531 h -2.92969 l 7.12891,-14.35547 q -3.33984,-0.74219 -5,-2.92969 -1.40625,-1.8164 -1.40625,-4.39453 0,-7.48047 9.84375,-7.48047 z m -2.59765,2.20703 h -6.75782 q -4.12109,0 -5.83984,1.54297 -1.44531,1.26953 -1.44531,3.76953 0,5.56641 7.51953,5.56641 h 6.52344 z"
           style="font-style:normal;font-variant:normal;font-weight:normal;font-stretch:normal;font-family:'Yu Gothic';-inkscape-font-specification:'Yu Gothic';letter-spacing:-7.80999994px"
           id="path4527" />
      </g>
      <g
         aria-label="РАСПРЕДЕЛЕННОЙ ГЕНЕРАЦИИ"
         transform="matrix(0.26458333,0,0,0.26458333,-5.425976,-21.575124)"
         style="font-style:normal;font-weight:normal;font-size:40px;line-height:1.25;font-family:sans-serif;letter-spacing:0px;word-spacing:0px;fill:#000000;fill-opacity:1;stroke:none"
         id="flowRoot4493">
        <path
           d="m 217.99349,366.54948 v 5.64583 h -1.75 v -14.9375 h 4.10417 q 2.39583,0 3.70833,1.16667 1.32292,1.16667 1.32292,3.29167 0,2.125 -1.46875,3.47916 -1.45834,1.35417 -3.94792,1.35417 z m 0,-7.70833 v 6.125 h 1.83333 q 1.8125,0 2.76042,-0.82292 0.95833,-0.83333 0.95833,-2.34375 0,-2.95833 -3.5,-2.95833 z"
           style="font-style:normal;font-variant:normal;font-weight:normal;font-stretch:normal;font-size:21.33333397px;font-family:'Yu Gothic UI';-inkscape-font-specification:'Yu Gothic UI';letter-spacing:1.5px"
           id="path4530" />
        <path
           d="m 241.26432,372.19531 h -1.9375 l -1.58333,-4.1875 h -6.33333 l -1.48959,4.1875 h -1.94791 l 5.72916,-14.9375 h 1.8125 z m -4.09375,-5.76041 -2.34375,-6.36459 q -0.11458,-0.3125 -0.22916,-1 h -0.0417 q -0.10417,0.63542 -0.23958,1 l -2.32292,6.36459 z"
           style="font-style:normal;font-variant:normal;font-weight:normal;font-stretch:normal;font-size:21.33333397px;font-family:'Yu Gothic UI';-inkscape-font-specification:'Yu Gothic UI';letter-spacing:1.5px"
           id="path4532" />
        <path
           d="m 255.11849,371.57031 q -1.65625,0.875 -4.125,0.875 -3.1875,0 -5.10417,-2.05208 -1.91666,-2.05208 -1.91666,-5.38542 0,-3.58333 2.15625,-5.79166 2.15625,-2.20834 5.46875,-2.20834 2.125,0 3.52083,0.61459 v 1.86458 q -1.60417,-0.89583 -3.54167,-0.89583 -2.57291,0 -4.17708,1.71875 -1.59375,1.71875 -1.59375,4.59375 0,2.72916 1.48958,4.35416 1.5,1.61459 3.92709,1.61459 2.25,0 3.89583,-1 z"
           style="font-style:normal;font-variant:normal;font-weight:normal;font-stretch:normal;font-size:21.33333397px;font-family:'Yu Gothic UI';-inkscape-font-specification:'Yu Gothic UI';letter-spacing:1.5px"
           id="path4534" />
        <path
           d="m 270.99349,372.19531 h -1.77083 v -13.3125 h -7.80209 v 13.3125 h -1.76041 v -14.9375 h 11.33333 z"
           style="font-style:normal;font-variant:normal;font-weight:normal;font-stretch:normal;font-size:21.33333397px;font-family:'Yu Gothic UI';-inkscape-font-specification:'Yu Gothic UI';letter-spacing:1.5px"
           id="path4536" />
        <path
           d="m 278.11849,366.54948 v 5.64583 h -1.75 v -14.9375 h 4.10417 q 2.39583,0 3.70833,1.16667 1.32292,1.16667 1.32292,3.29167 0,2.125 -1.46875,3.47916 -1.45834,1.35417 -3.94792,1.35417 z m 0,-7.70833 v 6.125 h 1.83333 q 1.8125,0 2.76042,-0.82292 0.95833,-0.83333 0.95833,-2.34375 0,-2.95833 -3.5,-2.95833 z"
           style="font-style:normal;font-variant:normal;font-weight:normal;font-stretch:normal;font-size:21.33333397px;font-family:'Yu Gothic UI';-inkscape-font-specification:'Yu Gothic UI';letter-spacing:1.5px"
           id="path4538" />
        <path
           d="m 297.74349,372.19531 h -7.91666 v -14.9375 h 7.58333 v 1.58334 h -5.83333 v 4.96875 h 5.39583 v 1.57291 h -5.39583 v 5.22917 h 6.16666 z"
           style="font-style:normal;font-variant:normal;font-weight:normal;font-stretch:normal;font-size:21.33333397px;font-family:'Yu Gothic UI';-inkscape-font-specification:'Yu Gothic UI';letter-spacing:1.5px"
           id="path4540" />
        <path
           d="m 314.24349,376.20573 h -1.61458 v -4.01042 h -10.69792 v 4.01042 h -1.61458 v -5.59375 h 1.15625 q 1.5,-2.73958 2.54166,-6.39583 1.05209,-3.66667 1.1875,-6.95834 h 7.03125 v 13.35417 h 2.01042 z m -3.76042,-5.59375 v -11.77083 h -3.79166 q -0.16667,2.57291 -1.14584,6.02083 -0.97916,3.44792 -2.17708,5.75 z"
           style="font-style:normal;font-variant:normal;font-weight:normal;font-stretch:normal;font-size:21.33333397px;font-family:'Yu Gothic UI';-inkscape-font-specification:'Yu Gothic UI';letter-spacing:1.5px"
           id="path4542" />
        <path
           d="m 326.32683,372.19531 h -7.91667 v -14.9375 h 7.58333 v 1.58334 h -5.83333 v 4.96875 h 5.39583 v 1.57291 h -5.39583 v 5.22917 h 6.16667 z"
           style="font-style:normal;font-variant:normal;font-weight:normal;font-stretch:normal;font-size:21.33333397px;font-family:'Yu Gothic UI';-inkscape-font-specification:'Yu Gothic UI';letter-spacing:1.5px"
           id="path4544" />
        <path
           d="m 341.11849,372.19531 h -1.75 v -13.35416 h -4.14583 q -0.71875,5.64583 -1.13542,7.97916 -0.41666,2.33334 -0.84375,3.4375 -0.42708,1.10417 -1.15625,1.64584 -0.72916,0.53125 -1.75,0.53125 -0.82291,0 -1.42708,-0.21875 v -1.64584 q 0.53125,0.30209 1.17708,0.30209 0.64584,0 1.20834,-0.77084 0.57291,-0.77083 1.15625,-4.01041 0.59375,-3.23959 1.3125,-8.83334 h 7.35416 z"
           style="font-style:normal;font-variant:normal;font-weight:normal;font-stretch:normal;font-size:21.33333397px;font-family:'Yu Gothic UI';-inkscape-font-specification:'Yu Gothic UI';letter-spacing:1.5px"
           id="path4546" />
        <path
           d="m 354.4935,372.19531 h -7.91667 v -14.9375 h 7.58334 v 1.58334 h -5.83334 v 4.96875 h 5.39584 v 1.57291 h -5.39584 v 5.22917 h 6.16667 z"
           style="font-style:normal;font-variant:normal;font-weight:normal;font-stretch:normal;font-size:21.33333397px;font-family:'Yu Gothic UI';-inkscape-font-specification:'Yu Gothic UI';letter-spacing:1.5px"
           id="path4548" />
        <path
           d="m 370.09766,372.19531 h -1.75 v -6.8125 h -7.72917 v 6.8125 h -1.75 v -14.9375 h 1.75 v 6.55209 h 7.72917 v -6.55209 h 1.75 z"
           style="font-style:normal;font-variant:normal;font-weight:normal;font-stretch:normal;font-size:21.33333397px;font-family:'Yu Gothic UI';-inkscape-font-specification:'Yu Gothic UI';letter-spacing:1.5px"
           id="path4550" />
        <path
           d="m 386.76433,372.19531 h -1.75 v -6.8125 h -7.72917 v 6.8125 h -1.75 v -14.9375 h 1.75 v 6.55209 h 7.72917 v -6.55209 h 1.75 z"
           style="font-style:normal;font-variant:normal;font-weight:normal;font-stretch:normal;font-size:21.33333397px;font-family:'Yu Gothic UI';-inkscape-font-specification:'Yu Gothic UI';letter-spacing:1.5px"
           id="path4552" />
        <path
           d="m 398.22267,372.44531 q -3.17709,0 -5.09375,-2.09375 -1.90625,-2.09375 -1.90625,-5.44791 0,-3.60417 1.94791,-5.75 1.94792,-2.14584 5.30209,-2.14584 3.09375,0 4.97916,2.08334 1.89584,2.08333 1.89584,5.44791 0,3.65625 -1.9375,5.78125 -1.9375,2.125 -5.1875,2.125 z m 0.125,-13.85416 q -2.35417,0 -3.82292,1.69791 -1.46875,1.69792 -1.46875,4.45834 0,2.76041 1.42708,4.44791 1.4375,1.67709 3.73959,1.67709 2.45833,0 3.875,-1.60417 1.41666,-1.60417 1.41666,-4.48958 0,-2.95834 -1.375,-4.57292 -1.375,-1.61458 -3.79166,-1.61458 z"
           style="font-style:normal;font-variant:normal;font-weight:normal;font-stretch:normal;font-size:21.33333397px;font-family:'Yu Gothic UI';-inkscape-font-specification:'Yu Gothic UI';letter-spacing:1.5px"
           id="path4554" />
        <path
           d="m 421.82683,372.19531 h -1.75 v -10.79166 q 0,-1.45834 0.10417,-2.05209 h -0.0625 q -0.19792,0.51042 -0.47917,0.9375 l -7.6875,11.90625 h -2.16667 v -14.9375 h 1.75 v 10.52084 q 0,1.6875 -0.0833,2.19791 h 0.0417 q 0.22917,-0.45833 0.58334,-1 l 7.5,-11.71875 h 2.25 z m -2.20833,-19.47916 q -0.15625,1.46875 -1.18751,2.32291 -1.02083,0.84375 -2.5625,0.84375 -1.58333,0 -2.58333,-0.84375 -0.98958,-0.85416 -1.08333,-2.32291 h 1.6875 q 0.14583,1.95833 2,1.95833 0.83333,0 1.375,-0.51042 0.54166,-0.52083 0.66666,-1.44791 z"
           style="font-style:normal;font-variant:normal;font-weight:normal;font-stretch:normal;font-size:21.33333397px;font-family:'Yu Gothic UI';-inkscape-font-specification:'Yu Gothic UI';letter-spacing:1.5px"
           id="path4556" />
        <path
           d="m 442.36849,358.88281 h -5.98958 v 13.3125 h -1.76042 v -14.9375 h 7.75 z"
           style="font-style:normal;font-variant:normal;font-weight:normal;font-stretch:normal;font-size:21.33333397px;font-family:'Yu Gothic UI';-inkscape-font-specification:'Yu Gothic UI';letter-spacing:1.5px"
           id="path4558" />
        <path
           d="m 454.1185,372.19531 h -7.91667 v -14.9375 h 7.58334 v 1.58334 h -5.83334 v 4.96875 h 5.39584 v 1.57291 h -5.39584 v 5.22917 h 6.16667 z"
           style="font-style:normal;font-variant:normal;font-weight:normal;font-stretch:normal;font-size:21.33333397px;font-family:'Yu Gothic UI';-inkscape-font-specification:'Yu Gothic UI';letter-spacing:1.5px"
           id="path4560" />
        <path
           d="m 469.72266,372.19531 h -1.75 v -6.8125 h -7.72917 v 6.8125 h -1.75 v -14.9375 h 1.75 v 6.55209 h 7.72917 v -6.55209 h 1.75 z"
           style="font-style:normal;font-variant:normal;font-weight:normal;font-stretch:normal;font-size:21.33333397px;font-family:'Yu Gothic UI';-inkscape-font-specification:'Yu Gothic UI';letter-spacing:1.5px"
           id="path4562" />
        <path
           d="m 483.07684,372.19531 h -7.91666 v -14.9375 h 7.58333 v 1.58334 h -5.83333 v 4.96875 h 5.39583 v 1.57291 h -5.39583 v 5.22917 h 6.16666 z"
           style="font-style:normal;font-variant:normal;font-weight:normal;font-stretch:normal;font-size:21.33333397px;font-family:'Yu Gothic UI';-inkscape-font-specification:'Yu Gothic UI';letter-spacing:1.5px"
           id="path4564" />
        <path
           d="m 489.20183,366.54948 v 5.64583 h -1.75 v -14.9375 h 4.10417 q 2.39583,0 3.70833,1.16667 1.32292,1.16667 1.32292,3.29167 0,2.125 -1.46875,3.47916 -1.45833,1.35417 -3.94792,1.35417 z m 0,-7.70833 v 6.125 h 1.83334 q 1.8125,0 2.76041,-0.82292 0.95834,-0.83333 0.95834,-2.34375 0,-2.95833 -3.5,-2.95833 z"
           style="font-style:normal;font-variant:normal;font-weight:normal;font-stretch:normal;font-size:21.33333397px;font-family:'Yu Gothic UI';-inkscape-font-specification:'Yu Gothic UI';letter-spacing:1.5px"
           id="path4566" />
        <path
           d="m 512.47268,372.19531 h -1.9375 l -1.58334,-4.1875 h -6.33333 l -1.48958,4.1875 h -1.94792 l 5.72917,-14.9375 h 1.8125 z m -4.09375,-5.76041 -2.34375,-6.36459 q -0.11459,-0.3125 -0.22917,-1 h -0.0417 q -0.10416,0.63542 -0.23958,1 l -2.32292,6.36459 z"
           style="font-style:normal;font-variant:normal;font-weight:normal;font-stretch:normal;font-size:21.33333397px;font-family:'Yu Gothic UI';-inkscape-font-specification:'Yu Gothic UI';letter-spacing:1.5px"
           id="path4568" />
        <path
           d="m 529.38934,376.20573 h -1.61458 v -4.01042 h -11.61458 v -14.9375 h 1.75 v 13.35417 h 7.72916 v -13.35417 h 1.75 v 13.35417 h 2 z"
           style="font-style:normal;font-variant:normal;font-weight:normal;font-stretch:normal;font-size:21.33333397px;font-family:'Yu Gothic UI';-inkscape-font-specification:'Yu Gothic UI';letter-spacing:1.5px"
           id="path4570" />
        <path
           d="m 545.53516,372.19531 h -1.75 v -10.79166 q 0,-1.45834 0.10416,-2.05209 h -0.0625 q -0.19791,0.51042 -0.47916,0.9375 l -7.6875,11.90625 h -2.16667 v -14.9375 h 1.75 v 10.52084 q 0,1.6875 -0.0833,2.19791 h 0.0417 q 0.22917,-0.45833 0.58334,-1 l 7.5,-11.71875 h 2.25 z"
           style="font-style:normal;font-variant:normal;font-weight:normal;font-stretch:normal;font-size:21.33333397px;font-family:'Yu Gothic UI';-inkscape-font-specification:'Yu Gothic UI';letter-spacing:1.5px"
           id="path4572" />
        <path
           d="m 563.03516,372.19531 h -1.75 v -10.79166 q 0,-1.45834 0.10416,-2.05209 h -0.0625 q -0.19791,0.51042 -0.47916,0.9375 l -7.6875,11.90625 h -2.16667 v -14.9375 h 1.75 v 10.52084 q 0,1.6875 -0.0833,2.19791 h 0.0417 q 0.22917,-0.45833 0.58334,-1 l 7.5,-11.71875 h 2.25 z"
           style="font-style:normal;font-variant:normal;font-weight:normal;font-stretch:normal;font-size:21.33333397px;font-family:'Yu Gothic UI';-inkscape-font-specification:'Yu Gothic UI';letter-spacing:1.5px"
           id="path4574" />
      </g>
    </g>
    <g
       id="g4876"
       transform="matrix(1.0508539,0,0,1.0515339,-29.594064,-60.843443)"
       style="stroke-width:0.95129937"
       inkscape:export-xdpi="96"
       inkscape:export-ydpi="96">
      <path
         transform="matrix(0.43056254,0,0,0.42428678,27.865996,40.243529)"
         sodipodi:type="star"
         style="opacity:1;fill:none;fill-opacity:0.91372549;stroke:#000000;stroke-width:2.22571373;stroke-linecap:square;stroke-linejoin:miter;stroke-miterlimit:4;stroke-dasharray:none;stroke-dashoffset:0;stroke-opacity:1"
         id="path4836"
         sodipodi:sides="6"
         sodipodi:cx="17.333996"
         sodipodi:cy="70.675819"
         sodipodi:r1="7.8923745"
         sodipodi:r2="6.8349967"
         sodipodi:arg1="-1.0471976"
         sodipodi:arg2="-0.52359878"
         inkscape:flatsided="true"
         inkscape:rounded="0"
         inkscape:randomized="0"
         d="m 21.280183,63.840822 3.946187,6.834997 -3.946187,6.834997 -7.892374,0 -3.9461877,-6.834996 3.9461867,-6.834997 z"
         inkscape:transform-center-y="-1.5328654e-006" />
      <path
         transform="matrix(0.43056254,0,0,0.42428678,27.865996,40.243529)"
         inkscape:transform-center-y="-1.5328654e-006"
         d="m 33.118745,57.005827 3.946187,6.834997 -3.946187,6.834997 -7.892374,0 -3.946188,-6.834996 3.946187,-6.834998 z"
         inkscape:randomized="0"
         inkscape:rounded="0"
         inkscape:flatsided="true"
         sodipodi:arg2="-0.52359878"
         sodipodi:arg1="-1.0471976"
         sodipodi:r2="6.8349967"
         sodipodi:r1="7.8923745"
         sodipodi:cy="63.840824"
         sodipodi:cx="29.172558"
         sodipodi:sides="6"
         id="path4838"
         style="opacity:1;fill:none;fill-opacity:0.91372549;stroke:#000000;stroke-width:2.22571373;stroke-linecap:square;stroke-linejoin:miter;stroke-miterlimit:4;stroke-dasharray:none;stroke-dashoffset:0;stroke-opacity:1"
         sodipodi:type="star" />
      <path
         style="fill:none;stroke:#000000;stroke-width:0.95129937;stroke-linecap:butt;stroke-linejoin:miter;stroke-miterlimit:4;stroke-dasharray:none;stroke-opacity:1"
         d="m 43.824767,73.130347 -1.699081,2.9 h -3.398159"
         id="path4844"
         inkscape:connector-curvature="0" />
      <path
         style="fill:none;stroke:#000000;stroke-width:0.95129937;stroke-linecap:butt;stroke-linejoin:miter;stroke-miterlimit:4;stroke-dasharray:none;stroke-opacity:1"
         d="m 37.028446,61.530346 1.699077,2.9 h 3.398164"
         id="path4846"
         inkscape:connector-curvature="0" />
      <path
         inkscape:connector-curvature="0"
         id="path4848"
         d="m 43.824767,73.130347 -1.69908,-2.900001 h -3.398161"
         style="fill:none;stroke:#000000;stroke-width:0.95129937;stroke-linecap:butt;stroke-linejoin:miter;stroke-miterlimit:4;stroke-dasharray:none;stroke-opacity:1" />
      <path
         inkscape:connector-curvature="0"
         id="path4852"
         d="m 43.824767,73.130347 h 3.398161"
         style="fill:none;stroke:#000000;stroke-width:0.95129937;stroke-linecap:butt;stroke-linejoin:miter;stroke-miterlimit:4;stroke-dasharray:none;stroke-opacity:1" />
    </g>
  </g>
</svg>
